<svg viewBox="0 0 532 84" xmlns="http://www.w3.org/2000/svg" fill-rule="evenodd" clip-rule="evenodd" stroke-linejoin="round" stroke-miterlimit="1.414"><path fill="#3a3a3a" d="M0 0h532v84H0z"/><path d="M40.096 51.925h3.062l1.582-5.698h7.66l1.612 5.698h3.062l-6.695-21.87h-3.59l-6.7 21.87zm5.36-8.07l3.12-11.193L51.7 43.854h-6.24zm15.997 8.07h2.58l2.606-8.994 2.62 9h2.58l3.83-16.4h-2.66l-2.86 13.25-2.38-8.46h-2.3l-2.34 8.46-2.85-13.26h-2.67l3.84 16.41zm24.14.425c.924 0 1.86-.088 2.8-.308.95-.22 1.92-.527 2.96-.952v-2.68c-1.057.54-2.053.966-3.005 1.244-.923.28-1.816.41-2.71.41-1.772 0-3.032-.527-3.926-1.464-.937-.982-1.406-2.36-1.406-4.146v-.088H91.98v-1.318c0-2.505-.63-4.453-1.8-5.815-1.173-1.363-2.813-2.11-4.996-2.11-2.212 0-4.175.762-5.596 2.344-1.304 1.465-2.095 3.53-2.095 6.284 0 2.69.748 4.81 2.154 6.32s3.428 2.29 5.947 2.29zM80.41 42.272c.162-1.51.66-2.71 1.495-3.575.835-.864 1.904-1.29 3.222-1.29 1.29 0 2.344.412 3.047 1.232.645.74 1.07 1.93 1.113 3.61l-8.877.01zm21.97 10.078c1.92 0 3.53-.44 4.718-1.377 1.113-.88 1.728-2.095 1.728-3.78 0-1.245-.336-2.24-1.025-2.988-.65-.747-1.64-1.245-3.04-1.523l-1.08-.205c-1.93-.366-2.9-.703-3.35-1.055-.45-.35-.67-.937-.67-1.626 0-.82.31-1.435.91-1.83.6-.396 1.54-.587 2.67-.587.9 0 1.67.11 2.45.33a9.83 9.83 0 0 1 2.33 1.01v-2.63a14.23 14.23 0 0 0-2.38-.74 13 13 0 0 0-2.5-.24c-1.92 0-3.47.38-4.58 1.27-1.053.83-1.595 2.05-1.595 3.63 0 1.24.356 2.22 1.07 2.94.78.77 1.937 1.24 3.4 1.54l1.01.2.12.03c2.477.51 3.59 1.32 3.59 2.68a2.37 2.37 0 0 1-.982 1.93c-.66.48-1.58.73-2.765.73-.895 0-1.715-.15-2.61-.4-.834-.232-1.64-.525-2.884-1.155v2.79a30.37 30.37 0 0 0 2.88.777 14 14 0 0 0 2.64.25zm18.444 0c2.3 0 4.057-.747 5.23-2.197 1.215-1.465 1.8-3.648 1.8-6.446 0-2.768-.6-4.892-1.8-6.372-1.173-1.45-2.887-2.212-5.23-2.212-2.27 0-4.014.733-5.215 2.212-1.21 1.48-1.81 3.618-1.81 6.387 0 2.74.57 4.907 1.8 6.43 1.21 1.465 2.97 2.198 5.21 2.198zm0-2.285c-1.363 0-2.403-.542-3.106-1.612-.703-1.07-1.055-2.636-1.055-4.716s.352-3.663 1.055-4.732c.703-1.07 1.743-1.597 3.106-1.597 1.376 0 2.417.528 3.12 1.597.703 1.07 1.054 2.65 1.054 4.732 0 2.08-.35 3.647-1.054 4.716-.703 1.07-1.744 1.612-3.12 1.612zm10.634 1.86h2.447v-9.39c0-2.563.16-3.69.44-4.277.233-.527.658-.88 1.48-.88.76 0 1.23.31 1.478.82.234.514.425 1.48.425 4.337v9.39h2.46v-9.39c0-2.33.118-3.574.455-4.262.293-.63.79-.894 1.538-.894.82 0 1.23.32 1.45.83.28.6.4 1.84.4 4.32v9.39h2.46v-9.5c0-2.83-.26-4.76-.8-5.77-.51-1-1.45-1.53-2.8-1.53-.72 0-1.33.16-1.84.5-.51.34-.93.85-1.27 1.57-.28-.71-.66-1.22-1.14-1.56-.51-.34-1.12-.52-1.84-.52-.63 0-1.17.15-1.65.45-.48.3-.89.76-1.21 1.34l-.23-1.41h-2.21V51.9zm26.382.425c.923 0 1.86-.088 2.798-.308.952-.22 1.92-.527 2.96-.952v-2.68c-1.056.54-2.052.966-3.004 1.244-.923.28-1.816.41-2.71.41-1.772 0-3.032-.527-3.926-1.464-.937-.982-1.406-2.36-1.406-4.146v-.088h11.675v-1.318c0-2.505-.63-4.453-1.802-5.815-1.172-1.363-2.812-2.11-4.995-2.11-2.212 0-4.175.762-5.596 2.344-1.303 1.465-2.094 3.53-2.094 6.284 0 2.69.747 4.81 2.153 6.32 1.406 1.51 3.428 2.29 5.947 2.29zm-5.185-10.078c.16-1.51.66-2.71 1.494-3.575.83-.864 1.9-1.29 3.22-1.29 1.29 0 2.34.412 3.04 1.232.64.74 1.07 1.93 1.11 3.61l-8.88.01zm42.26 10.078c.88 0 1.773-.103 2.535-.293a11.35 11.35 0 0 0 2.314-.908v-3.04a8.076 8.076 0 0 1-2.3 1.36 7.2 7.2 0 0 1-2.534.46c-1.92 0-3.37-.75-4.32-2.23-.953-1.48-1.437-3.72-1.437-6.71 0-3 .484-5.25 1.436-6.73.95-1.48 2.4-2.23 4.29-2.23.88 0 1.7.16 2.53.47a7.82 7.82 0 0 1 2.33 1.36v-3.03a10.094 10.094 0 0 0-2.32-.91 10.81 10.81 0 0 0-2.54-.3c-2.74 0-4.94.98-6.51 2.984-1.57 2.006-2.33 4.85-2.33 8.38 0 3.53.77 6.356 2.31 8.35 1.56 2.01 3.78 2.973 6.52 2.973zm16.215 0c2.3 0 4.06-.747 5.23-2.197 1.216-1.465 1.802-3.648 1.802-6.446 0-2.768-.6-4.892-1.8-6.372-1.173-1.45-2.887-2.212-5.23-2.212-2.27 0-4.015.733-5.216 2.212-1.2 1.48-1.8 3.618-1.8 6.387 0 2.74.57 4.907 1.8 6.43 1.216 1.465 2.974 2.198 5.215 2.198zm0-2.285c-1.36 0-2.4-.542-3.104-1.612-.703-1.07-1.055-2.636-1.055-4.716s.36-3.663 1.06-4.732c.71-1.07 1.75-1.597 3.11-1.597 1.38 0 2.42.528 3.12 1.597.71 1.07 1.06 2.65 1.06 4.732 0 2.08-.35 3.647-1.05 4.716-.7 1.07-1.74 1.612-3.12 1.612zm10.636 1.86h2.446v-9.39c0-2.563.16-3.69.44-4.277.234-.527.66-.88 1.48-.88.76 0 1.23.31 1.48.82.233.514.423 1.48.423 4.337v9.39h2.46v-9.39c0-2.33.12-3.574.455-4.262.293-.63.792-.894 1.54-.894.82 0 1.23.32 1.45.83.277.6.394 1.84.394 4.32v9.39h2.46v-9.5c0-2.83-.262-4.76-.804-5.77-.513-1-1.45-1.53-2.798-1.53-.718 0-1.333.16-1.846.5-.513.34-.938.85-1.274 1.57-.28-.71-.66-1.22-1.143-1.56-.52-.34-1.13-.52-1.85-.52-.63 0-1.17.15-1.66.45-.49.3-.9.76-1.22 1.34l-.24-1.41h-2.21V51.9zm18.06 0h2.448v-9.39c0-2.563.16-3.69.44-4.277.234-.527.658-.88 1.48-.88.76 0 1.23.31 1.478.82.235.514.425 1.48.425 4.337v9.39h2.46v-9.39c0-2.33.118-3.574.455-4.262.293-.63.79-.894 1.538-.894.82 0 1.23.32 1.45.83.28.6.396 1.84.396 4.32v9.39h2.46v-9.5c0-2.83-.263-4.76-.805-5.77-.51-1-1.45-1.53-2.79-1.53-.72 0-1.33.16-1.84.5-.51.34-.94.85-1.27 1.57-.28-.71-.66-1.22-1.14-1.56-.51-.34-1.12-.52-1.84-.52-.63 0-1.17.15-1.65.45-.48.3-.89.76-1.21 1.34l-.24-1.41h-2.21V51.9zm23.98.425c1.187 0 2.227-.22 3.165-.703.87-.454 1.84-1.23 2.41-2.212.05.307.13.79.24 1.216a9.24 9.24 0 0 0 .4 1.28h2.71a10.464 10.464 0 0 1-.39-1.33c-.1-.36-.23-1.15-.34-1.98-.1-.74-.08-1.56-.13-2.69v-3.36c0-1.45-.07-2.52-.23-3.24a4.953 4.953 0 0 0-.79-1.81c-.57-.77-1.42-1.37-2.31-1.77-.98-.41-2.08-.61-3.47-.61-.89 0-1.782.08-2.68.28a21.11 21.11 0 0 0-2.87.86v2.69a11.48 11.48 0 0 1 2.74-1.15 10.307 10.307 0 0 1 2.8-.39c1.407 0 2.47.3 3.12.88.66.6.997 1.61.997 2.86v.42h-3.62c-2.384 0-4.17.47-5.39 1.42-1.23.95-1.843 2.346-1.843 4.148 0 1.715.556 2.9 1.494 3.795.98.95 2.327 1.42 4.026 1.42zm.558-2.256c-1.128 0-1.92-.308-2.49-.82-.572-.528-.894-1.275-.894-2.286 0-1.098.366-1.918 1.2-2.49.807-.542 1.978-.82 3.546-.82h3.413v.6c0 1.788-.43 3.21-1.29 4.263-.85 1.04-2.01 1.56-3.49 1.56zm12.846 1.83h2.696v-9.27c0-1.686.336-2.96 1.025-3.854.66-.88 1.6-1.333 2.89-1.333 1.12 0 1.94.352 2.45 1.04.52.69.78 1.772.78 3.252v10.16h2.71V41.76c0-2.228-.41-3.898-1.23-4.996-.8-1.055-2-1.64-3.76-1.64-1.13 0-2.09.234-2.9.717-.8.49-1.46 1.19-1.95 2.14l-.26-2.46h-2.43v16.41zm23.394.426c.98 0 1.846-.22 2.593-.645.805-.454 1.333-1.07 1.787-1.845l.263 2.065h2.432V29.132h-2.7v8.48a4.548 4.548 0 0 0-1.78-1.86c-.75-.424-1.61-.63-2.61-.63-1.89 0-3.53.748-4.69 2.272-1.16 1.523-1.7 3.706-1.7 6.3 0 2.635.57 4.803 1.7 6.34 1.05 1.452 2.62 2.316 4.68 2.316zm.38-2.285c-1.23 0-2.24-.484-2.93-1.597-.658-1.07-.995-2.65-.995-4.73 0-2.082.33-3.664.99-4.733.66-1.07 1.64-1.597 2.94-1.597 1.39 0 2.34.6 2.97 1.597.67 1.07 1.01 2.65 1.01 4.732 0 2.08-.34 3.647-1.01 4.716-.68 1.07-1.67 1.612-2.99 1.612zm30.704 1.86h13.535v-2.49H334.66v-19.38h-2.972v21.87zm24.682-19.38c.293 0 .44-.146.44-.44V29.57c0-.29-.147-.437-.44-.437h-2.11c-.292 0-.438.147-.438.44v2.534c0 .293.146.44.44.44h2.108zm6.226 19.497v-2.285h-3.15c-.834 0-1.494-.278-1.962-.923-.454-.6-.674-1.523-.674-2.74V35.52h-6.284v2.108h3.59v8.467c0 1.89.438 3.354 1.332 4.394.937 1.09 2.168 1.55 3.735 1.55h3.413zm4.922-.117h2.695v-9.272c0-1.685.337-2.96 1.026-3.853.65-.88 1.59-1.333 2.88-1.333 1.11 0 1.93.352 2.44 1.04.51.69.77 1.772.77 3.252v10.16h2.71V41.76c0-2.228-.41-3.898-1.23-4.996-.81-1.055-2.01-1.64-3.77-1.64-1.13 0-2.1.234-2.9.717-.81.49-1.47 1.19-1.95 2.14l-.26-2.46h-2.43v16.41zm25.122.425c.923 0 1.86-.088 2.798-.308.952-.22 1.92-.527 2.96-.952v-2.68c-1.056.54-2.052.966-3.004 1.244a9.24 9.24 0 0 1-2.71.41c-1.773 0-3.032-.527-3.926-1.464-.937-.982-1.406-2.36-1.406-4.146v-.088h11.675v-1.318c0-2.505-.63-4.453-1.802-5.815-1.172-1.363-2.813-2.11-4.995-2.11-2.212 0-4.175.762-5.596 2.344-1.304 1.465-2.095 3.53-2.095 6.284 0 2.69.74 4.81 2.15 6.32 1.4 1.51 3.42 2.29 5.94 2.29zm-5.186-10.078c.162-1.51.66-2.71 1.495-3.575.83-.864 1.9-1.29 3.22-1.29 1.29 0 2.34.412 3.04 1.232.64.74 1.07 1.93 1.11 3.61l-8.88.01zm31.934 9.653h3.062l1.582-5.698h7.66l1.612 5.698h3.062l-6.695-21.87h-3.58l-6.69 21.87zm5.36-8.07l3.12-11.193 3.122 11.192h-6.24zm14.942 14.31h2.71V49.86a4.565 4.565 0 0 0 1.773 1.845c.718.41 1.494.645 2.608.645 1.98 0 3.53-.762 4.66-2.285 1.13-1.51 1.7-3.62 1.7-6.3 0-2.68-.55-4.804-1.68-6.342-1.13-1.538-2.71-2.3-4.66-2.3-.98 0-1.84.205-2.59.63-.74.425-1.34 1.04-1.8 1.86l-.26-2.094h-2.45v22.64zm6.695-8.1c-1.304 0-2.3-.542-2.974-1.612-.67-1.07-1.01-2.636-1.01-4.716s.34-3.663 1.01-4.732c.68-1.07 1.67-1.597 2.98-1.597s2.29.528 2.95 1.597c.66 1.07.98 2.637.98 4.732 0 2.094-.32 3.662-.98 4.73-.66 1.07-1.64 1.598-2.94 1.598zm11.367 8.1h2.71V49.86a4.574 4.574 0 0 0 1.773 1.845c.717.41 1.494.645 2.607.645 1.978 0 3.53-.762 4.658-2.285 1.128-1.51 1.7-3.62 1.7-6.3 0-2.68-.557-4.804-1.685-6.342-1.128-1.538-2.71-2.3-4.658-2.3-.982 0-1.846.205-2.593.63-.747.425-1.348 1.04-1.802 1.86l-.263-2.094h-2.45v22.64zm6.695-8.1c-1.304 0-2.3-.542-2.974-1.612-.674-1.07-1.01-2.636-1.01-4.716s.336-3.663 1.01-4.732c.674-1.07 1.67-1.597 2.974-1.597 1.303 0 2.285.528 2.944 1.597.66 1.07.99 2.637.99 4.732 0 2.094-.32 3.662-.98 4.73-.66 1.07-1.64 1.598-2.94 1.598zm17.226 2.285c1.92 0 3.53-.44 4.717-1.377 1.113-.88 1.728-2.095 1.728-3.78 0-1.245-.336-2.24-1.025-2.988-.66-.747-1.64-1.245-3.047-1.523l-1.084-.205c-1.933-.366-2.9-.703-3.354-1.055-.454-.35-.674-.937-.674-1.626 0-.82.308-1.435.908-1.83.6-.396 1.538-.587 2.666-.587.894 0 1.67.11 2.446.33a9.96 9.96 0 0 1 2.33 1.01v-2.63a14.23 14.23 0 0 0-2.388-.74 13 13 0 0 0-2.505-.24c-1.91 0-3.47.38-4.58 1.27-1.05.83-1.59 2.05-1.59 3.63 0 1.24.35 2.22 1.07 2.94.78.77 1.94 1.24 3.4 1.54l1.01.2.12.03c2.48.51 3.59 1.32 3.59 2.68a2.37 2.37 0 0 1-.98 1.93c-.66.48-1.58.73-2.77.73-.89 0-1.71-.15-2.6-.4-.83-.232-1.64-.525-2.88-1.155v2.79a30.67 30.67 0 0 0 2.89.777c.84.163 1.78.25 2.64.25z" fill="#d0d0d0" fill-rule="nonzero"/><g fill="#d0d0d0"><path d="M10 10h3.048v15H10V10zm3.997 4.013h3V25h-3V14.013z"/><path d="M25 13.074l.003-3.048L10 10.013l-.003 3.048L25 13.08v-.004zm-.003 3.95l.003-3-11-.01-.003 3 11 .01z"/></g><path d="M57.006 13.074l.003-3.048-30-.026-.01 3.048 30 .026zm-.003 3.95l.003-3-30-.027-.003 3 30 .026zm256.052-3.95l.003-3.048-30-.026-.003 3.048 30 .026zm-.003 3.95l.002-3-30-.027-.002 3 30 .026zm-128.022-3.95l.003-3.048-30-.026-.002 3.048 30 .026zm-.003 3.95l.003-3-30-.027-.003 3 30 .026zm256.053-3.95l.002-3.048-30-.026-.003 3.048 30 .026zm-.004 3.95l.002-3-30-.027-.002 3 30 .026zm-352.063-3.95l.002-3.048-30-.026-.002 3.048 30 .026zm-.003 3.95l.002-3-30-.027-.003 3 30 .026zm256.05-3.95l.004-3.048-30-.026-.003 3.048 30 .026zm-.002 3.95l.002-3-30-.027-.002 3 30 .026zm-128.02-3.95v-3.048l-30-.026-.003 3.048 30 .026h.003zm-.005 3.95l.003-3-30-.027-.003 3 30 .026zm256.067-3.85l.004-3.048-30-.026-.003 3.048 30 .026zm-.002 3.95l.003-3-30-.027v3l30 .026zm-352.078-4.05v-3.048l-30-.026v3.048l30 .026zm-.005 3.95l.003-3-30-.027-.003 3 30 .026zm256.052-3.95l.003-3.048-30-.026-.003 3.048 30 .026zm-.003 3.95l.002-3-30-.027-.002 3 30 .026zm-128.02-3.95l.002-3.048-30-.026-.003 3.048 30 .026zm-.004 3.95l.002-3-30-.027-.003 3 30 .026zm-96.015-3.95l.002-3.048-30-.026-.002 3.048 30 .026zm-.005 3.95l.004-3-30-.027-.003 3 30 .026zm256.053-3.95l.003-3.048-30-.026-.003 3.048 30 .026zm-.003 3.95l.002-3-30-.027-.002 3 30 .026zm-128.02-3.95l.002-3.048-30-.026-.003 3.048 30 .026zm-.005 3.95l.003-3-30-.027-.002 3 30 .026zM10 27h3.048v30H10V27zm3.997 0h3v30h-3V27zM515 27h3.048v30H515V27zm3.997 0h3v30h-3V27z" fill="#d0d0d0"/><g fill="#d0d0d0"><path d="M522.104 13.154v-3.048h-15v3.048h15zm-4.014 3.95v-3h-10.986v3h10.987z"/><path d="M519.03 25.106l3.048.003.013-15.01-3.04-.01-.01 15zm-3.95-.003l3 .003.01-11-3-.003-.01 11z"/></g><g fill="#d0d0d0"><path d="M519.056 59h3.048v15h-3.048V59zm-3.95 0h3v10.987h-3V59z"/><path d="M507.104 70.926l-.003 3.048 15.01.013.01-3.048-15-.02zm.003-3.95l-.003 3 11 .01.003-3-11-.01z"/></g><path d="M443.098 70.926l-.003 3.048 30 .026.003-3.048-30-.026zm.002-3.95l-.002 3 30 .027.003-3-30-.026zm62-53.802l.004-3.048-30-.026-.003 3.048 30 .026zm-.002 3.95l.003-3-30-.027v3l30 .026zm-30 53.802l-.003 3.048 30 .026.003-3.048-30-.026zm.002-3.95l-.002 3 30 .027.003-3-30-.026zm-288.05 3.95l-.004 3.048 30 .026.003-3.048-30-.026zm.002-3.95l-.002 3 30 .027.002-3-30-.026zm128.02 3.95v3.048l30 .026.003-3.048-30-.026h-.003zm.005-3.95l-.003 3 30 .027.003-3-30-.026zm-256.052 3.95l-.003 3.048 30 .026.003-3.048-30-.026zm.003-3.95l-.002 3 30 .027.002-3-30-.026zm352.064 3.95l-.003 3.048 30 .026v-3.048l-30-.026zm.003-3.95l-.003 3 30 .027.003-3-30-.026zm-256.052 3.95l-.003 3.048 30 .026.003-3.048-30-.026zm.003-3.95l-.002 3 30 .027.002-3-30-.026zm128.02 3.95v3.048l30 .026v-3.048l-30-.026zm.004-3.95l-.002 3 30 .027.003-3-30-.026zm-256.067 3.85L27 73.874l30 .026.003-3.048-30-.026zm.003-3.95l-.003 3 30 .027.003-3-30-.026zm352.08 4.05l-.003 3.048 30 .026.002-3.048-30-.026zm.004-3.95l-.004 3 30 .027.003-3-30-.026zm-256.053 3.95l-.003 3.048 30 .026.003-3.048-30-.026zm.003-3.95l-.002 3 30 .027.002-3-30-.026zm128.02 3.95v3.048l30 .026v-3.048l-30-.026zm.005-3.95l-.003 3 30 .027.003-3-30-.026zm96.015 3.95l-.003 3.048 30 .026.002-3.048-30-.026zm.003-3.95l-.003 3 30 .027.003-3-30-.026zM91.03 70.926l-.002 3.048 30 .026.003-3.048-30-.026zm.004-3.95l-.002 3 30 .027.002-3-30-.026zm128.02 3.95l-.002 3.048 30 .026.003-3.048-30-.026zm.006-3.95l-.004 3 30 .027.003-3-30-.026z" fill="#d0d0d0"/><g fill="#d0d0d0"><path d="M10 70.846v3.048h15v-3.048H10zm4.013-3.95v3H25v-3H14.013z"/><path d="M13.074 58.894l-3.048-.003-.013 15.01 3.048.01.02-15v-.01zm3.95.003l-3-.003-.01 11 3 .003.01-11z"/></g></svg>