<svg viewBox="0 0 532 84" xmlns="http://www.w3.org/2000/svg" fill-rule="evenodd" clip-rule="evenodd" stroke-linejoin="round" stroke-miterlimit="1.414"><path fill="#3a3a3a" d="M0 0h532v84H0z"/><text x="39.554" y="51.925" font-family="Hack" font-size="30" fill="#d0d0d0">Awesome Command Line Apps</text><g fill="#d0d0d0"><path d="M10 10h3.048v15H10zm3.997 4.013h3V25h-3z"/><path d="M25 13.074l.003-3.048L10 10.013l-.003 3.048L25 13.078zm-.003 3.95l.003-3-11-.01-.003 3 11 .01z"/></g><path d="M57.006 13.074l.003-3.048-30-.026-.007 3.048 30 .026zm-.003 3.95l.003-3-30-.027-.003 3 30 .026zm256.052-3.95l.003-3.048-30-.026-.003 3.048 30 .026zm-.003 3.95l.002-3-30-.027-.002 3 30 .026zm-128.022-3.95l.003-3.048-30-.026-.002 3.048 30 .026zm-.003 3.95l.003-3-30-.027-.003 3 30 .026zm256.053-3.95l.002-3.048-30-.026-.003 3.048 30 .026zm-.004 3.95l.002-3-30-.027-.002 3 30 .026zm-352.063-3.95l.002-3.048-30-.026-.002 3.048 30 .026zm-.003 3.95l.002-3-30-.027-.003 3 30 .026zm256.05-3.95l.004-3.048-30-.026-.003 3.048 30 .026zm-.002 3.95l.002-3-30-.027-.002 3 30 .026zm-128.02-3.95v-3.048l-30-.026-.003 3.048 30 .026zm-.005 3.95l.003-3-30-.027-.003 3 30 .026zm256.067-3.85l.004-3.048-30-.026-.003 3.048 30 .026zm-.002 3.95l.003-3-30-.027v3l30 .026zm-352.078-4.05v-3.048l-30-.026v3.048l30 .026zm-.005 3.95l.003-3-30-.027-.003 3 30 .026zm256.052-3.95l.003-3.048-30-.026-.003 3.048 30 .026zm-.003 3.95l.002-3-30-.027-.002 3 30 .026zm-128.02-3.95l.002-3.048-30-.026-.003 3.048 30 .026zm-.004 3.95l.002-3-30-.027-.003 3 30 .026zm-96.015-3.95l.002-3.048-30-.026-.002 3.048 30 .026zm-.005 3.95l.004-3-30-.027-.003 3 30 .026zm256.053-3.95l.003-3.048-30-.026-.003 3.048 30 .026zm-.003 3.95l.002-3-30-.027-.002 3 30 .026zm-128.02-3.95l.002-3.048-30-.026-.003 3.048 30 .026zm-.005 3.95l.003-3-30-.027-.002 3 30 .026zM10 27h3.048v30H10zm3.997 0h3v30h-3zM515 27h3.048v30H515zm3.997 0h3v30h-3z" fill="#d0d0d0"/><g fill="#d0d0d0"><path d="M522.104 13.154v-3.048h-15v3.048h15zm-4.014 3.95v-3h-10.986v3h10.987z"/><path d="M519.03 25.106l3.048.003.013-15.007-3.044-.003-.013 15.004zm-3.95-.003l3 .003.01-11-3-.003-.01 11z"/></g><g fill="#d0d0d0"><path d="M519.056 59h3.048v15h-3.048zm-3.95 0h3v10.987h-3z"/><path d="M507.104 70.926l-.003 3.048 15.007.013.003-3.048-15.004-.017zm.003-3.95l-.003 3 11 .01.003-3-11-.01z"/></g><path d="M443.098 70.926l-.003 3.048 30 .026.003-3.048-30-.026zm.002-3.95l-.002 3 30 .027.003-3-30-.026zm62-53.802l.004-3.048-30-.026-.003 3.048 30 .026zm-.002 3.95l.003-3-30-.027v3l30 .026zm-30 53.802l-.003 3.048 30 .026.003-3.048-30-.026zm.002-3.95l-.002 3 30 .027.003-3-30-.026zm-288.05 3.95l-.004 3.048 30 .026.003-3.048-30-.026zm.002-3.95l-.002 3 30 .027.002-3-30-.026zm128.02 3.95v3.048l30 .026.003-3.048-30-.026zm.005-3.95l-.003 3 30 .027.003-3-30-.026zm-256.052 3.95l-.003 3.048 30 .026.003-3.048-30-.026zm.003-3.95l-.002 3 30 .027.002-3-30-.026zm352.064 3.95l-.003 3.048 30 .026v-3.048l-30-.026zm.003-3.95l-.003 3 30 .027.003-3-30-.026zm-256.052 3.95l-.003 3.048 30 .026.003-3.048-30-.026zm.003-3.95l-.002 3 30 .027.002-3-30-.026zm128.02 3.95v3.048l30 .026v-3.048l-30-.026zm.004-3.95l-.002 3 30 .027.003-3-30-.026zm-256.067 3.85L27 73.874l30 .026.003-3.048-30-.026zm.003-3.95l-.003 3 30 .027.003-3-30-.026zm352.08 4.05l-.003 3.048 30 .026.002-3.048-30-.026zm.004-3.95l-.004 3 30 .027.003-3-30-.026zm-256.053 3.95l-.003 3.048 30 .026.003-3.048-30-.026zm.003-3.95l-.002 3 30 .027.002-3-30-.026zm128.02 3.95v3.048l30 .026v-3.048l-30-.026zm.005-3.95l-.003 3 30 .027.003-3-30-.026zm96.015 3.95l-.003 3.048 30 .026.002-3.048-30-.026zm.003-3.95l-.003 3 30 .027.003-3-30-.026zM91.03 70.926l-.002 3.048 30 .026.003-3.048-30-.026zm.004-3.95l-.002 3 30 .027.002-3-30-.026zm128.02 3.95l-.002 3.048 30 .026.003-3.048-30-.026zm.006-3.95l-.004 3 30 .027.003-3-30-.026z" fill="#d0d0d0"/><g fill="#d0d0d0"><path d="M10 70.846v3.048h15v-3.048H10zm4.013-3.95v3H25v-3H14.013z"/><path d="M13.074 58.894l-3.048-.003-.013 15.007 3.048.003.017-15.004zm3.95.003l-3-.003-.01 11 3 .003.01-11z"/></g></svg>